<svg width="56" height="49" viewBox="0 0 56 49" fill="none" xmlns="http://www.w3.org/2000/svg">
<g clip-path="url(#clip0_16_22)">
<path d="M28 1.26882C24.9122 1.26882 22.4 4.49884 22.4 8.46882C22.4 12.4388 24.9122 15.6688 28 15.6688C31.0877 15.6688 33.6 12.4388 33.6 8.46882C33.6 4.49884 31.0877 1.26882 28 1.26882ZM28 4.76002C29.593 4.76002 30.8846 6.42063 30.8846 8.46882C30.8846 10.517 29.593 12.1776 28 12.1776C26.4069 12.1776 25.1153 10.517 25.1153 8.46882C25.1153 6.42063 26.4069 4.76002 28 4.76002Z" fill="#D8B25E"/>
<path d="M15.516 10.2093C15.0162 11.4907 13.981 12.3253 12.8193 12.1568C11.5038 11.9663 10.4631 10.4494 10.4022 8.64562C10.3303 6.51773 11.5729 4.76186 13.116 4.76186C13.9279 4.76186 14.6569 5.24845 15.1547 6.02047C15.4964 6.55063 16.0349 6.7541 16.518 6.50157C16.5599 6.47963 16.6018 6.4577 16.6436 6.43577C17.4179 6.03085 17.6826 4.69952 17.1481 3.83428C16.056 2.06571 14.3523 1.02268 12.4882 1.31879C10.077 1.70148 8.14146 4.3581 7.87336 7.65137C7.52068 11.9845 10.0087 15.6688 13.116 15.6688C15.1333 15.6688 16.8902 14.1147 17.7761 11.8367C18.2157 10.706 17.5928 9.34289 16.655 9.33308C16.6457 9.33279 16.6367 9.33279 16.6273 9.33279C16.1677 9.32788 15.7321 9.65545 15.516 10.2093Z" fill="#694582"/>
<path d="M20.3316 33.4251L14.9313 40.3664C14.8666 40.4492 14.7961 40.5218 14.7216 40.584C14.6953 40.6074 14.669 40.6254 14.6429 40.6437C14.6287 40.6567 14.6127 40.6668 14.5985 40.6747C14.5744 40.6927 14.55 40.7057 14.5259 40.7189C14.5058 40.7319 14.4856 40.742 14.4635 40.7524C14.4554 40.7578 14.4453 40.7603 14.4372 40.7654C14.4372 40.7654 14.4291 40.7679 14.4171 40.7733C14.4109 40.7758 14.405 40.7783 14.3969 40.7809C14.3767 40.7913 14.3546 40.7992 14.3342 40.8043C14.3264 40.8068 14.3163 40.8096 14.3062 40.8121C14.292 40.8172 14.276 40.8197 14.2597 40.8251C14.2234 40.838 14.1872 40.8459 14.1509 40.8485C14.1307 40.851 14.1105 40.8535 14.0904 40.8561C14.0602 40.8589 14.0319 40.8614 14.0017 40.8614C13.9997 40.8614 13.9997 40.8614 13.9975 40.8614C13.8222 40.8614 13.6448 40.8147 13.4813 40.7215C13.3321 40.6409 13.193 40.5218 13.0721 40.3664L10.0552 36.4915L7.66972 33.4251C7.15749 32.7642 7.15749 31.6938 7.66972 31.0354L13.0721 24.0916C13.3282 23.7625 13.6649 23.5966 14.0017 23.5966C14.3384 23.5966 14.6732 23.7625 14.9313 24.0916L20.3316 31.0354C20.7933 31.6262 20.8397 32.549 20.4688 33.21C20.4304 33.2852 20.384 33.3578 20.3316 33.4251ZM23.9008 26.4475L18.5005 19.5038C17.2988 17.9592 15.6996 17.109 14.0017 17.109C12.3017 17.109 10.7046 17.9592 9.50263 19.5038L4.1003 26.4475C1.61997 29.6359 1.61997 34.8247 4.1003 38.0127L7.36519 42.2066L9.50263 44.954C10.7046 46.4988 12.3017 47.349 14.0017 47.349C14.0884 47.349 14.173 47.3465 14.2578 47.3411C15.8609 47.2609 17.3592 46.4211 18.5005 44.954L23.9008 38.0127C24.1085 37.7486 24.2961 37.4684 24.4674 37.1755C26.363 33.9745 26.1735 29.3714 23.9008 26.4475Z" fill="#694582"/>
<mask id="mask0_16_22" style="mask-type:luminance" maskUnits="userSpaceOnUse" x="7" y="33" width="18" height="15">
<path d="M24.4496 37.3911C24.2832 37.6778 24.101 37.952 23.8993 38.2106L18.6545 45.0047C17.5461 46.4408 16.0909 47.2627 14.534 47.3413C14.4517 47.3465 14.3696 47.349 14.2853 47.349C12.6343 47.349 11.0832 46.5169 9.91585 45.0047L7.83997 42.3156C8.53129 40.6105 9.41071 38.7232 10.4525 36.7216L13.3825 40.5143C13.4999 40.6665 13.635 40.7831 13.7799 40.8619C13.9387 40.9531 14.111 40.9989 14.2812 40.9989C14.2834 40.9989 14.2834 40.9989 14.2853 40.9989C14.3147 40.9989 14.3421 40.9964 14.3715 40.9937C14.391 40.9912 14.4106 40.9887 14.4302 40.9862C14.4674 40.9785 14.5025 40.9711 14.5359 40.9633C14.5517 40.9581 14.5672 40.9556 14.5811 40.9507C14.5908 40.9482 14.6006 40.9454 14.6083 40.9429C14.6281 40.938 14.6496 40.9303 14.6691 40.9201C14.677 40.9176 14.6828 40.9151 14.6887 40.9126C14.7004 40.9074 14.7083 40.9049 14.7083 40.9049C14.7162 40.8999 14.726 40.8975 14.7338 40.8922C14.7553 40.882 14.7749 40.8721 14.7945 40.8594C14.8179 40.8465 14.8415 40.8338 14.8649 40.8161C14.8787 40.8084 14.8943 40.7985 14.9081 40.7858C14.9334 40.7679 14.959 40.7503 14.9845 40.7274C15.0568 40.6665 15.1253 40.5954 15.1881 40.5143L20.4329 33.7202C20.4838 33.6543 20.5289 33.5832 20.5661 33.5096L21.6139 33.7202L24.4496 37.3911Z" fill="white"/>
</mask>
<g mask="url(#mask0_16_22)">
<path d="M24.4496 37.6017C24.2832 37.8883 24.101 38.1626 23.8993 38.4211L18.6545 45.2153C17.5461 46.6514 16.0909 47.4733 14.534 47.5519C14.4517 47.5571 14.3696 47.5596 14.2853 47.5596C12.6343 47.5596 10.6873 46.7011 9.51997 45.189L7.83997 43.029C8.53129 41.3239 9.41071 38.9338 10.4525 36.9321L11.76 38.709L13.3143 40.869C13.4318 41.0211 13.5669 41.1377 13.7118 41.2166C13.8705 41.3078 14.0429 41.3535 14.2131 41.3535H14.2171C14.2465 41.3535 14.274 41.3511 14.3033 41.3483C14.3229 41.3458 14.3425 41.3434 14.362 41.3409C14.3993 41.3332 14.4344 41.3257 14.4678 41.318C14.4835 41.3128 14.4991 41.3103 14.5129 41.3053C14.5227 41.3028 14.5325 41.3001 14.5401 41.2976C14.5599 41.2926 14.5814 41.2849 14.601 41.2747C14.6089 41.2722 14.6146 41.2698 14.6206 41.2673C14.6323 41.262 14.6401 41.2596 14.6401 41.2596C14.648 41.2546 14.6578 41.2521 14.6657 41.2469C14.6872 41.2367 14.7067 41.2268 14.7263 41.2141C14.7497 41.2011 14.7733 41.1884 14.7968 41.1708C14.8106 41.1631 14.8261 41.1532 14.8399 41.1405C14.8653 41.1226 14.8908 41.1049 14.9163 41.082C14.9887 41.0211 15.0572 40.95 15.12 40.869L17.36 37.269L20.4329 33.9307C20.4838 33.8649 20.5289 33.7938 20.5661 33.7202L21.6139 33.9307L24.4496 37.6017Z" fill="url(#paint0_linear_16_22)"/>
<path d="M24.4496 37.6017C24.2832 37.8883 24.101 38.1626 23.8993 38.4211L18.6545 45.2153C17.5461 46.6514 16.0909 47.4733 14.534 47.5519C14.4517 47.5571 14.3696 47.5596 14.2853 47.5596C12.6343 47.5596 10.6873 46.7011 9.51997 45.189L7.83997 43.029C8.53129 41.3239 9.41071 38.9338 10.4525 36.9321L11.76 38.709L13.3143 40.869C13.4318 41.0211 13.5669 41.1377 13.7118 41.2166C13.8705 41.3078 14.0429 41.3535 14.2131 41.3535H14.2171C14.2465 41.3535 14.274 41.3511 14.3033 41.3483C14.3229 41.3458 14.3425 41.3434 14.362 41.3409C14.3993 41.3332 14.4344 41.3257 14.4678 41.318C14.4835 41.3128 14.4991 41.3103 14.5129 41.3053C14.5227 41.3028 14.5325 41.3001 14.5401 41.2976C14.5599 41.2926 14.5814 41.2849 14.601 41.2747C14.6089 41.2722 14.6146 41.2698 14.6206 41.2673C14.6323 41.262 14.6401 41.2596 14.6401 41.2596C14.648 41.2546 14.6578 41.2521 14.6657 41.2469C14.6872 41.2367 14.7067 41.2268 14.7263 41.2141C14.7497 41.2011 14.7733 41.1884 14.7968 41.1708C14.8106 41.1631 14.8261 41.1532 14.8399 41.1405C14.8653 41.1226 14.8908 41.1049 14.9163 41.082C14.9887 41.0211 15.0572 40.95 15.12 40.869L17.36 37.269L20.4329 33.9307C20.4838 33.8649 20.5289 33.7938 20.5661 33.7202L21.6139 33.9307L24.4496 37.6017Z" fill="url(#paint1_linear_16_22)"/>
</g>
<path d="M38.3711 26.4455L32.7128 19.5048C31.4539 17.9603 29.7812 17.109 28.0007 17.109C26.2202 17.109 24.5473 17.9603 23.2886 19.5048L20.7335 22.6423L23.8329 26.4455C24.0504 26.7096 24.2471 26.9893 24.4272 27.2813L27.0275 24.0931C27.2967 23.7628 27.6487 23.5978 28.0007 23.5978C28.3525 23.5978 28.7066 23.7628 28.9758 24.0931L34.632 31.0338C35.1703 31.6944 35.1703 32.7639 34.632 33.4245L28.9758 40.3652C28.7066 40.6955 28.3525 40.8605 28.0007 40.8605C27.6487 40.8605 27.2967 40.6955 27.0275 40.3652L24.4293 37.1767C24.4272 37.1767 24.4272 37.1742 24.4272 37.1742L21.3692 33.4245C21.0918 33.0815 20.9573 32.6293 20.9697 32.1821C20.7253 31.8645 20.477 31.5468 20.2347 31.2371C20.1933 31.1658 20.1456 31.0974 20.094 31.0338L19.3941 30.1777C19.3693 30.147 19.3445 30.1141 19.3195 30.0837C18.0422 28.4882 17.038 27.2813 17.038 27.2813H17.0359C16.1561 28.6966 15.6799 30.4191 15.6799 32.2277C15.6799 34.0392 16.1561 35.7592 17.038 37.1742C17.2181 37.4665 17.4169 37.7458 17.6321 38.0102L21.8619 43.2003L23.2886 44.9535C24.5473 46.498 26.2202 47.349 28.0007 47.349C29.7812 47.349 31.4539 46.498 32.7128 44.9535L38.3711 38.0102C40.9695 34.8218 40.9695 29.634 38.3711 26.4455Z" fill="#D8B25E"/>
<path d="M51.8999 26.4442L46.4998 19.5064C45.8565 18.6794 45.1003 18.0498 44.2735 17.6479C43.5577 17.2929 42.7894 17.109 42.0009 17.109C40.3011 17.109 38.7042 17.9616 37.5023 19.5064L35.0019 22.7175L37.9015 26.4442C38.1293 26.7371 38.337 27.0482 38.5226 27.3695L41.0714 24.0936C41.3275 23.7619 41.6642 23.5986 42.0009 23.5986C42.3357 23.5986 42.6724 23.7619 42.9307 24.0936L48.3306 31.0343C48.8428 31.6951 48.8428 32.7629 48.3306 33.4237L42.9307 40.3644C42.6724 40.6936 42.3357 40.8594 42.0009 40.8594C41.6642 40.8594 41.3275 40.6936 41.0714 40.3644L38.7828 37.4253C38.7828 37.4227 38.7807 37.4227 38.7807 37.4202L38.5206 37.0885L35.6693 33.4237C35.4355 33.1205 35.3065 32.7319 35.2883 32.3405C35.0179 31.975 34.7458 31.6146 34.4797 31.2649C34.4393 31.1846 34.389 31.1066 34.3324 31.0343L32.9713 29.2873L32.7171 28.9582L32.4792 28.6524C32.0277 28.0667 31.691 27.6364 31.5516 27.4627L31.4811 27.3695H31.4791C29.8257 30.2464 29.8277 34.2116 31.4811 37.0885C31.6667 37.4098 31.8724 37.7181 32.1002 38.0084L35.0019 41.738L36.2159 43.2982L37.5023 44.9516C38.7042 46.4964 40.3011 47.349 42.0009 47.349C43.701 47.349 45.2979 46.4964 46.4998 44.9516L51.8999 38.0084C54.3801 34.8207 54.3801 29.6348 51.8999 26.4442Z" fill="#5C77B9"/>
<mask id="mask1_16_22" style="mask-type:luminance" maskUnits="userSpaceOnUse" x="35" y="17" width="11" height="11">
<path d="M42.2527 23.6896C41.9084 23.6896 41.5641 23.8564 41.3023 24.1954L38.6962 27.5428C38.5065 27.2145 38.2942 26.8966 38.0612 26.5974L35.0966 22.7893L37.6531 19.508C38.8819 17.9295 40.5147 17.0582 42.2527 17.0582C43.0589 17.0582 43.8444 17.2461 44.5762 17.609C47.0978 20.7843 42.2527 23.6896 42.2527 23.6896Z" fill="white"/>
</mask>
<g mask="url(#mask1_16_22)">
<path d="M42.2527 23.6896C41.9084 23.6896 41.5641 23.8564 41.3023 24.1954L38.6962 27.5428C38.5065 27.2145 38.2942 26.8966 38.0612 26.5974L35.0966 22.7893L37.6531 19.508C38.8819 17.9295 40.5147 17.0582 42.2527 17.0582C43.0589 17.0582 43.8444 17.2461 44.5762 17.609C47.0978 20.7843 42.2527 23.6896 42.2527 23.6896Z" fill="url(#paint2_linear_16_22)"/>
</g>
<path d="M39.6311 6.72855C40.1865 5.44716 41.3367 4.61253 42.6274 4.78079C44.0892 4.97155 45.2455 6.48815 45.3132 8.29218C45.3931 10.42 44.0124 12.1756 42.2978 12.1756C41.3957 12.1756 40.5856 11.689 40.0328 10.917C39.653 10.3868 39.0546 10.1834 38.5178 10.4362C38.4712 10.4581 38.4247 10.4801 38.3782 10.5017C37.5179 10.9066 37.2237 12.2379 37.8177 13.1034C39.0311 14.872 40.9242 15.915 42.9953 15.6189C45.6745 15.2359 47.8253 12.5793 48.123 9.28641C48.5148 4.95309 45.7504 1.26882 42.2978 1.26882C40.0563 1.26882 38.1045 2.82322 37.1199 5.10114C36.6315 6.23158 37.3238 7.59464 38.3658 7.60474C38.3759 7.60474 38.386 7.60474 38.3963 7.60503C38.907 7.60993 39.391 7.28237 39.6311 6.72855Z" fill="#5C77B9"/>
</g>
<defs>
<linearGradient id="paint0_linear_16_22" x1="11.3313" y1="43.414" x2="19.0875" y2="43.8461" gradientUnits="userSpaceOnUse">
<stop stop-color="#694582" stop-opacity="0.37"/>
<stop offset="0.541667" stop-color="#C39E5C"/>
</linearGradient>
<linearGradient id="paint1_linear_16_22" x1="11.3313" y1="43.414" x2="19.0875" y2="43.8461" gradientUnits="userSpaceOnUse">
<stop stop-color="#694582" stop-opacity="0.37"/>
<stop offset="0.541667" stop-color="#C39E5C"/>
</linearGradient>
<linearGradient id="paint2_linear_16_22" x1="42.14" y1="17.1975" x2="35.3519" y2="23.1531" gradientUnits="userSpaceOnUse">
<stop stop-color="#5C77B9"/>
<stop offset="0.583333" stop-color="#C39E5C"/>
</linearGradient>
<clipPath id="clip0_16_22">
<rect width="56" height="48" fill="white" transform="translate(0 0.0689697)"/>
</clipPath>
</defs>
</svg>
